<svg xmlns="http://www.w3.org/2000/svg" id="SvgjsSvg247510" width="4096" height="4076.1227927842947" version="1.1" xmlns:xlink="http://www.w3.org/1999/xlink" xmlns:svgjs="http://svgjs.com/svgjs"><defs id="SvgjsDefs247511"></defs><g id="SvgjsG247512" transform="translate(328, 328) scale(34.4)" opacity="1"><defs id="SvgjsDefs62416"></defs><g id="SvgjsG62417" transform="scale(0.34897218044522915)" opacity="1"><g id="SvgjsG62418" class="eDQpHN8Yy" transform="translate(0, 0.000008067018541169091) scale(2.7233707461401826)" light-content="false" non-strokable="false" fill="#000000"><path d="M105.221 51.009C105.221 22.837 82.383 0 54.212 0c-12.894 0-24.67 4.786-33.65 12.677C8.083 21.976 0 36.846 0 53.604c0 28.173 22.838 51.009 51.009 51.009 12.895 0 24.67-4.786 33.65-12.676 12.479-9.299 20.562-24.17 20.562-40.928zM33.742 6.185a49.498 49.498 0 0 1 16.602-2.85c27.396 0 49.604 22.208 49.604 49.604 0 20.355-12.263 37.844-29.801 45.49a49.523 49.523 0 0 1-16.602 2.85c-27.396 0-49.604-22.209-49.604-49.603 0-20.357 12.263-37.845 29.801-45.491zM53.546 2.07c27.396 0 49.604 22.208 49.604 49.604 0 8.48-2.131 16.464-5.883 23.445a50.81 50.81 0 0 0 4.751-21.517c0-28.171-22.838-51.008-51.01-51.008-2.899 0-5.739.245-8.506.709A49.918 49.918 0 0 1 53.546 2.07zm-3.202 100.473C22.949 102.543.74 80.334.74 52.939c0-14.266 6.024-27.121 15.664-36.171C8.201 25.82 3.202 37.83 3.202 51.009c0 28.172 22.838 51.01 51.01 51.01 1.6 0 3.181-.078 4.744-.223a49.98 49.98 0 0 1-8.612.747z"></path></g><g id="SvgjsG62419" class="text" transform="translate(142.01222702313567, 141.27873131885445) scale(1)" light-content="false" fill="#171717"><path d="M-56.23 -58.35C-59.32 -60.15 -62.89 -61.05 -66.96 -61.05C-70.71 -61.05 -74.07 -60.42 -77.03 -59.16C-79.99 -57.9 -82.3 -56.1 -83.98 -53.76C-85.65 -51.42 -86.48 -48.7 -86.48 -45.62C-86.48 -41.24 -84.77 -37.55 -81.35 -34.54C-77.93 -31.53 -73.23 -29.66 -67.27 -28.94C-62.48 -28.33 -58.89 -26.91 -56.5 -24.7C-54.11 -22.49 -52.91 -19.76 -52.91 -16.52C-52.91 -12.86 -54.2 -10.02 -56.77 -7.99C-59.34 -5.96 -62.74 -4.94 -66.96 -4.94C-70.61 -4.94 -73.81 -5.65 -76.57 -7.06C-79.32 -8.48 -81.29 -10.34 -82.47 -12.66C-82.73 -13.28 -83.13 -13.75 -83.67 -14.09C-84.21 -14.42 -84.79 -14.59 -85.4 -14.59C-86.33 -14.59 -87.06 -14.34 -87.6 -13.85C-88.14 -13.37 -88.41 -12.76 -88.41 -12.04C-88.41 -11.58 -88.31 -11.17 -88.1 -10.81C-86.46 -7.26 -83.74 -4.44 -79.96 -2.35C-76.18 -0.27 -71.84 0.77 -66.96 0.77C-63.2 0.77 -59.8 0.09 -56.77 -1.27C-53.73 -2.64 -51.34 -4.63 -49.59 -7.26C-47.84 -9.88 -46.97 -12.99 -46.97 -16.59C-46.97 -21.48 -48.54 -25.42 -51.67 -28.4C-54.81 -31.39 -59.57 -33.34 -65.95 -34.27C-75.68 -35.56 -80.54 -39.21 -80.54 -45.23C-80.54 -48.47 -79.33 -50.97 -76.91 -52.72C-74.49 -54.47 -71.2 -55.34 -67.03 -55.34C-61.22 -55.29 -56.87 -53 -53.99 -48.47C-53.68 -47.96 -53.28 -47.56 -52.79 -47.27C-52.3 -46.99 -51.78 -46.85 -51.21 -46.85C-50.7 -46.85 -50.23 -46.95 -49.82 -47.16C-48.9 -47.72 -48.43 -48.5 -48.43 -49.47C-48.43 -50.14 -48.61 -50.76 -48.97 -51.33C-50.72 -54.21 -53.14 -56.55 -56.23 -58.35Z M11.15 -59.51C10.64 -60.02 9.97 -60.28 9.15 -60.28L-33.54 -60.28C-34.36 -60.28 -35.03 -60.02 -35.54 -59.51C-36.06 -58.99 -36.31 -58.33 -36.31 -57.5C-36.31 -56.73 -36.06 -56.09 -35.54 -55.57C-35.03 -55.06 -34.36 -54.8 -33.54 -54.8L-15.24 -54.8L-15.24 -3.01C-15.24 -2.19 -14.95 -1.48 -14.36 -0.89C-13.76 -0.3 -13.06 0 -12.23 0C-11.36 0 -10.64 -0.3 -10.07 -0.89C-9.51 -1.48 -9.22 -2.19 -9.22 -3.01L-9.22 -54.8L9.15 -54.8C9.97 -54.8 10.64 -55.06 11.15 -55.57C11.67 -56.09 11.92 -56.73 11.92 -57.5C11.92 -58.32 11.67 -58.99 11.15 -59.51Z M90.81 -59.47C90.34 -60.01 89.7 -60.28 88.88 -60.28C87.33 -60.28 86.36 -59.61 85.94 -58.27L72.51 -11.35L59.78 -56.58C59.57 -57.19 59.21 -57.68 58.7 -58.04C58.18 -58.4 57.59 -58.58 56.92 -58.58C56.25 -58.58 55.65 -58.4 55.11 -58.04C54.57 -57.68 54.22 -57.22 54.07 -56.65L41.41 -11.42L28.06 -57.96C27.54 -59.51 26.56 -60.28 25.12 -60.28C24.3 -60.28 23.63 -60.01 23.12 -59.47C22.6 -58.93 22.34 -58.22 22.34 -57.35C22.34 -56.99 22.42 -56.52 22.58 -55.96L38.4 -2.47C38.6 -1.75 38.98 -1.16 39.52 -0.69C40.06 -0.23 40.69 0 41.41 0C42.13 0 42.76 -0.23 43.3 -0.69C43.84 -1.16 44.24 -1.78 44.5 -2.55L56.92 -48.09L69.43 -2.47C69.63 -1.75 70.01 -1.16 70.55 -0.69C71.09 -0.23 71.72 0 72.44 0C73.16 0 73.79 -0.22 74.33 -0.66C74.87 -1.09 75.27 -1.72 75.52 -2.55L91.27 -55.96C91.42 -56.52 91.5 -57.01 91.5 -57.42C91.5 -58.25 91.27 -58.93 90.81 -59.47Z"></path></g><g id="SvgjsG62420" class="text" transform="translate(143.69833305557373, 164.8479197058117) scale(1)" light-content="false" fill="#454545"><path d="M-105.11 -11.99C-105.75 -12.36 -106.46 -12.54 -107.23 -12.54C-107.97 -12.54 -108.62 -12.42 -109.19 -12.16C-109.75 -11.9 -110.19 -11.53 -110.51 -11.06C-110.82 -10.59 -110.97 -10.05 -110.97 -9.44C-110.97 -8.58 -110.64 -7.85 -109.97 -7.26C-109.3 -6.66 -108.37 -6.28 -107.2 -6.11C-106.19 -5.97 -105.44 -5.66 -104.92 -5.19C-104.41 -4.72 -104.15 -4.13 -104.15 -3.41C-104.15 -2.57 -104.42 -1.93 -104.94 -1.47C-105.46 -1.02 -106.18 -0.79 -107.09 -0.79C-107.88 -0.79 -108.56 -0.94 -109.13 -1.23C-109.69 -1.52 -110.12 -1.93 -110.4 -2.46C-110.5 -2.66 -110.65 -2.76 -110.86 -2.76C-111.01 -2.76 -111.13 -2.72 -111.22 -2.63C-111.31 -2.55 -111.35 -2.44 -111.35 -2.32C-111.35 -2.25 -111.34 -2.19 -111.31 -2.13C-110.95 -1.42 -110.4 -0.86 -109.67 -0.45C-108.94 -0.04 -108.08 0.16 -107.09 0.16C-106.32 0.16 -105.64 0.02 -105.05 -0.27C-104.46 -0.56 -104.01 -0.97 -103.69 -1.51C-103.36 -2.05 -103.2 -2.68 -103.2 -3.41C-103.2 -4.38 -103.51 -5.17 -104.12 -5.76C-104.74 -6.36 -105.71 -6.77 -107.04 -6.99C-108.06 -7.16 -108.81 -7.45 -109.29 -7.85C-109.78 -8.25 -110.02 -8.75 -110.02 -9.34C-110.02 -10.05 -109.78 -10.6 -109.28 -11C-108.79 -11.4 -108.11 -11.59 -107.23 -11.59C-106.05 -11.59 -105.14 -11.13 -104.52 -10.21C-104.41 -10.05 -104.26 -9.98 -104.07 -9.98C-103.99 -9.98 -103.93 -9.99 -103.88 -10.01C-103.8 -10.05 -103.73 -10.11 -103.69 -10.17C-103.64 -10.24 -103.61 -10.32 -103.61 -10.4C-103.61 -10.5 -103.64 -10.58 -103.68 -10.66C-103.98 -11.18 -104.46 -11.62 -105.11 -11.99Z M-93.98 -8.19C-94.66 -8.58 -95.41 -8.77 -96.25 -8.77C-97.06 -8.77 -97.8 -8.58 -98.47 -8.21C-99.15 -7.83 -99.68 -7.31 -100.07 -6.65C-100.46 -5.98 -100.66 -5.24 -100.67 -4.42L-100.67 -4.39L-100.67 3.24C-100.67 3.38 -100.63 3.5 -100.54 3.58C-100.45 3.67 -100.33 3.71 -100.2 3.71C-100.05 3.71 -99.93 3.67 -99.85 3.58C-99.76 3.5 -99.72 3.38 -99.72 3.24L-99.72 -1.71C-99.37 -1.15 -98.89 -0.71 -98.28 -0.39C-97.68 -0.07 -97 0.1 -96.25 0.1C-95.41 0.1 -94.66 -0.1 -93.98 -0.48C-93.3 -0.87 -92.77 -1.4 -92.38 -2.08C-92 -2.75 -91.81 -3.5 -91.81 -4.33C-91.81 -5.16 -92 -5.92 -92.38 -6.6C-92.77 -7.27 -93.3 -7.81 -93.98 -8.19ZM-94.47 -1.25C-95 -0.95 -95.59 -0.79 -96.25 -0.79C-96.9 -0.79 -97.49 -0.95 -98.02 -1.25C-98.55 -1.56 -98.97 -1.98 -99.27 -2.52C-99.57 -3.06 -99.72 -3.66 -99.72 -4.33C-99.72 -5 -99.57 -5.6 -99.27 -6.14C-98.97 -6.68 -98.55 -7.1 -98.02 -7.41C-97.49 -7.73 -96.9 -7.88 -96.25 -7.88C-95.59 -7.88 -95 -7.73 -94.47 -7.41C-93.94 -7.1 -93.52 -6.68 -93.22 -6.14C-92.91 -5.6 -92.76 -5 -92.76 -4.33C-92.76 -3.66 -92.91 -3.06 -93.22 -2.52C-93.52 -1.98 -93.94 -1.56 -94.47 -1.25Z M-83.14 -8.19C-83.81 -8.58 -84.56 -8.77 -85.39 -8.77C-86.22 -8.77 -86.98 -8.58 -87.66 -8.19C-88.33 -7.81 -88.87 -7.27 -89.25 -6.6C-89.64 -5.92 -89.83 -5.16 -89.83 -4.33C-89.83 -3.5 -89.64 -2.75 -89.25 -2.08C-88.87 -1.4 -88.33 -0.87 -87.66 -0.48C-86.98 -0.1 -86.22 0.1 -85.39 0.1C-84.56 0.1 -83.81 -0.1 -83.14 -0.48C-82.46 -0.87 -81.93 -1.4 -81.54 -2.08C-81.16 -2.75 -80.96 -3.5 -80.96 -4.33C-80.96 -5.16 -81.16 -5.92 -81.54 -6.6C-81.93 -7.27 -82.46 -7.81 -83.14 -8.19ZM-87.17 -7.41C-86.64 -7.73 -86.05 -7.88 -85.39 -7.88C-84.73 -7.88 -84.14 -7.73 -83.61 -7.41C-83.08 -7.1 -82.67 -6.68 -82.37 -6.14C-82.07 -5.6 -81.92 -5 -81.92 -4.33C-81.92 -3.66 -82.07 -3.06 -82.37 -2.52C-82.67 -1.98 -83.08 -1.56 -83.61 -1.25C-84.14 -0.95 -84.73 -0.79 -85.39 -0.79C-86.05 -0.79 -86.64 -0.95 -87.17 -1.25C-87.69 -1.56 -88.11 -1.98 -88.42 -2.52C-88.73 -3.06 -88.88 -3.66 -88.88 -4.33C-88.88 -5 -88.73 -5.6 -88.42 -6.14C-88.11 -6.68 -87.69 -7.1 -87.17 -7.41Z M-73.63 -8.25C-73.63 -8.6 -74.03 -8.77 -74.83 -8.77C-75.39 -8.77 -75.91 -8.63 -76.39 -8.36C-76.86 -8.08 -77.25 -7.7 -77.56 -7.22L-77.56 -8.2C-77.56 -8.35 -77.6 -8.46 -77.69 -8.55C-77.77 -8.63 -77.89 -8.68 -78.04 -8.68C-78.17 -8.68 -78.29 -8.63 -78.38 -8.55C-78.47 -8.46 -78.51 -8.35 -78.51 -8.2L-78.51 -0.48C-78.51 -0.34 -78.47 -0.22 -78.38 -0.13C-78.29 -0.04 -78.17 0 -78.04 0C-77.89 0 -77.77 -0.04 -77.69 -0.13C-77.6 -0.22 -77.56 -0.34 -77.56 -0.48L-77.56 -5.3C-77.56 -5.78 -77.45 -6.22 -77.21 -6.61C-76.98 -7 -76.66 -7.31 -76.25 -7.53C-75.83 -7.76 -75.36 -7.87 -74.83 -7.87C-74.73 -7.87 -74.6 -7.86 -74.45 -7.83C-74.29 -7.81 -74.17 -7.8 -74.07 -7.8C-73.96 -7.8 -73.86 -7.83 -73.79 -7.87C-73.73 -7.92 -73.68 -8 -73.64 -8.12C-73.63 -8.15 -73.63 -8.19 -73.63 -8.25Z M-67.22 -0.83C-67.31 -0.92 -67.43 -0.97 -67.58 -0.97L-67.93 -0.97C-68.53 -0.97 -69.02 -1.16 -69.4 -1.55C-69.78 -1.93 -69.97 -2.43 -69.97 -3.05L-69.97 -7.5L-67.88 -7.5C-67.75 -7.5 -67.65 -7.54 -67.57 -7.62C-67.49 -7.7 -67.45 -7.8 -67.45 -7.93C-67.45 -8.06 -67.49 -8.16 -67.57 -8.24C-67.65 -8.32 -67.75 -8.36 -67.88 -8.36L-69.97 -8.36L-69.97 -10.94C-69.97 -11.09 -70.02 -11.21 -70.11 -11.3C-70.2 -11.39 -70.32 -11.43 -70.46 -11.43C-70.6 -11.43 -70.71 -11.39 -70.8 -11.3C-70.89 -11.21 -70.94 -11.09 -70.94 -10.94L-70.94 -8.36L-72.18 -8.36C-72.3 -8.36 -72.41 -8.32 -72.49 -8.24C-72.56 -8.16 -72.6 -8.06 -72.6 -7.93C-72.6 -7.8 -72.56 -7.7 -72.49 -7.62C-72.41 -7.54 -72.3 -7.5 -72.18 -7.5L-70.94 -7.5L-70.94 -3.05C-70.94 -2.46 -70.81 -1.94 -70.56 -1.48C-70.3 -1.02 -69.95 -0.66 -69.5 -0.4C-69.04 -0.13 -68.52 0 -67.94 0L-67.58 0C-67.43 0 -67.31 -0.04 -67.22 -0.13C-67.13 -0.22 -67.08 -0.34 -67.08 -0.48C-67.08 -0.62 -67.13 -0.74 -67.22 -0.83Z M-61.16 -4.68C-61.26 -4.77 -61.37 -4.82 -61.51 -4.82L-65.36 -4.82C-65.5 -4.82 -65.61 -4.77 -65.7 -4.68C-65.79 -4.58 -65.84 -4.47 -65.84 -4.33C-65.84 -4.19 -65.79 -4.08 -65.7 -3.99C-65.61 -3.9 -65.5 -3.85 -65.36 -3.85L-61.51 -3.85C-61.37 -3.85 -61.26 -3.9 -61.16 -3.99C-61.06 -4.08 -61.02 -4.19 -61.02 -4.33C-61.02 -4.47 -61.06 -4.58 -61.16 -4.68Z M-46.34 -8.55C-46.43 -8.63 -46.55 -8.68 -46.69 -8.68C-46.83 -8.68 -46.94 -8.63 -47.03 -8.55C-47.12 -8.46 -47.17 -8.35 -47.17 -8.2L-47.17 -3.35C-47.17 -2.88 -47.3 -2.46 -47.57 -2.07C-47.83 -1.68 -48.19 -1.38 -48.65 -1.17C-49.11 -0.95 -49.62 -0.84 -50.18 -0.84C-51.09 -0.84 -51.83 -1.1 -52.4 -1.63C-52.96 -2.16 -53.24 -2.93 -53.24 -3.93L-53.24 -8.2C-53.24 -8.34 -53.29 -8.45 -53.38 -8.54C-53.47 -8.63 -53.58 -8.68 -53.72 -8.68C-53.86 -8.68 -53.97 -8.63 -54.06 -8.54C-54.15 -8.45 -54.2 -8.34 -54.2 -8.2L-54.2 -3.93C-54.2 -3.09 -54.02 -2.36 -53.68 -1.75C-53.34 -1.14 -52.86 -0.68 -52.25 -0.36C-51.64 -0.05 -50.95 0.11 -50.18 0.11C-49.57 0.11 -49 -0.01 -48.49 -0.26C-47.97 -0.51 -47.53 -0.86 -47.17 -1.3L-47.17 -0.48C-47.17 -0.34 -47.12 -0.22 -47.03 -0.13C-46.94 -0.04 -46.83 0 -46.69 0C-46.55 0 -46.43 -0.04 -46.34 -0.13C-46.26 -0.22 -46.22 -0.34 -46.22 -0.48L-46.22 -8.2C-46.22 -8.35 -46.26 -8.46 -46.34 -8.55Z M-37.26 -8.31C-37.86 -8.63 -38.55 -8.79 -39.33 -8.79C-39.94 -8.79 -40.5 -8.66 -41.02 -8.41C-41.54 -8.17 -41.98 -7.82 -42.34 -7.37L-42.34 -8.2C-42.34 -8.35 -42.38 -8.46 -42.47 -8.55C-42.55 -8.63 -42.67 -8.68 -42.81 -8.68C-42.95 -8.68 -43.07 -8.63 -43.16 -8.55C-43.25 -8.46 -43.29 -8.35 -43.29 -8.2L-43.29 -0.48C-43.29 -0.34 -43.25 -0.22 -43.16 -0.13C-43.07 -0.04 -42.95 0 -42.81 0C-42.67 0 -42.55 -0.04 -42.47 -0.13C-42.38 -0.22 -42.34 -0.34 -42.34 -0.48L-42.34 -5.33C-42.34 -5.79 -42.21 -6.22 -41.94 -6.61C-41.68 -6.99 -41.32 -7.29 -40.86 -7.51C-40.4 -7.73 -39.89 -7.83 -39.33 -7.83C-38.42 -7.83 -37.68 -7.57 -37.11 -7.04C-36.55 -6.51 -36.26 -5.75 -36.26 -4.74L-36.26 -0.48C-36.26 -0.34 -36.22 -0.22 -36.13 -0.13C-36.04 -0.04 -35.93 0 -35.79 0C-35.65 0 -35.54 -0.04 -35.45 -0.13C-35.36 -0.22 -35.31 -0.34 -35.31 -0.48L-35.31 -4.74C-35.31 -5.59 -35.48 -6.31 -35.83 -6.92C-36.17 -7.53 -36.65 -7.99 -37.26 -8.31Z M-24.28 -12.26C-24.37 -12.34 -24.48 -12.39 -24.63 -12.39C-24.77 -12.39 -24.88 -12.34 -24.97 -12.26C-25.06 -12.17 -25.11 -12.06 -25.11 -11.91L-25.11 -6.96C-25.46 -7.52 -25.93 -7.96 -26.54 -8.29C-27.15 -8.61 -27.83 -8.77 -28.58 -8.77C-29.41 -8.77 -30.17 -8.58 -30.85 -8.19C-31.52 -7.81 -32.06 -7.27 -32.44 -6.6C-32.83 -5.92 -33.02 -5.17 -33.02 -4.35C-33.02 -3.51 -32.83 -2.75 -32.44 -2.08C-32.06 -1.4 -31.52 -0.87 -30.85 -0.48C-30.17 -0.1 -29.41 0.1 -28.58 0.1C-27.77 0.1 -27.02 -0.09 -26.35 -0.47C-25.68 -0.84 -25.15 -1.36 -24.76 -2.03C-24.37 -2.7 -24.17 -3.44 -24.15 -4.25L-24.15 -4.28L-24.15 -11.91C-24.15 -12.06 -24.2 -12.17 -24.28 -12.26ZM-26.8 -1.26C-27.33 -0.95 -27.92 -0.79 -28.58 -0.79C-29.23 -0.79 -29.83 -0.95 -30.36 -1.26C-30.88 -1.57 -31.3 -2 -31.61 -2.54C-31.92 -3.08 -32.07 -3.68 -32.07 -4.35C-32.07 -5.01 -31.92 -5.61 -31.61 -6.15C-31.3 -6.69 -30.88 -7.12 -30.36 -7.42C-29.83 -7.73 -29.23 -7.88 -28.58 -7.88C-27.92 -7.88 -27.33 -7.73 -26.8 -7.42C-26.27 -7.12 -25.86 -6.69 -25.56 -6.15C-25.26 -5.61 -25.11 -5.01 -25.11 -4.35C-25.11 -3.68 -25.26 -3.08 -25.56 -2.54C-25.86 -2 -26.27 -1.57 -26.8 -1.26Z M-7.98 -12.27C-8.06 -12.35 -8.17 -12.39 -8.29 -12.39L-17.27 -12.39C-17.4 -12.39 -17.5 -12.35 -17.58 -12.27C-17.66 -12.19 -17.7 -12.08 -17.7 -11.96C-17.7 -11.83 -17.66 -11.73 -17.58 -11.65C-17.5 -11.57 -17.4 -11.53 -17.27 -11.53L-13.26 -11.53L-13.26 -0.48C-13.26 -0.34 -13.21 -0.22 -13.12 -0.13C-13.03 -0.04 -12.92 0 -12.78 0C-12.64 0 -12.53 -0.04 -12.44 -0.13C-12.35 -0.22 -12.3 -0.34 -12.3 -0.48L-12.3 -11.53L-8.29 -11.53C-8.17 -11.53 -8.06 -11.57 -7.98 -11.65C-7.9 -11.73 -7.86 -11.83 -7.86 -11.96C-7.86 -12.08 -7.9 -12.19 -7.98 -12.27Z M-0.81 -8.55C-0.9 -8.63 -1.01 -8.68 -1.16 -8.68C-1.3 -8.68 -1.41 -8.63 -1.5 -8.55C-1.59 -8.46 -1.64 -8.35 -1.64 -8.2L-1.64 -3.35C-1.64 -2.88 -1.77 -2.46 -2.03 -2.07C-2.3 -1.68 -2.66 -1.38 -3.12 -1.17C-3.58 -0.95 -4.09 -0.84 -4.65 -0.84C-5.56 -0.84 -6.3 -1.1 -6.86 -1.63C-7.43 -2.16 -7.71 -2.93 -7.71 -3.93L-7.71 -8.2C-7.71 -8.34 -7.76 -8.45 -7.85 -8.54C-7.94 -8.63 -8.05 -8.68 -8.19 -8.68C-8.33 -8.68 -8.44 -8.63 -8.53 -8.54C-8.62 -8.45 -8.66 -8.34 -8.66 -8.2L-8.66 -3.93C-8.66 -3.09 -8.49 -2.36 -8.15 -1.75C-7.8 -1.14 -7.33 -0.68 -6.72 -0.36C-6.11 -0.05 -5.42 0.11 -4.65 0.11C-4.04 0.11 -3.47 -0.01 -2.95 -0.26C-2.44 -0.51 -2 -0.86 -1.64 -1.3L-1.64 -0.48C-1.64 -0.34 -1.59 -0.22 -1.5 -0.13C-1.41 -0.04 -1.3 0 -1.16 0C-1.01 0 -0.9 -0.04 -0.81 -0.13C-0.73 -0.22 -0.69 -0.34 -0.69 -0.48L-0.69 -8.2C-0.69 -8.35 -0.73 -8.46 -0.81 -8.55Z M7.13 -8.25C7.13 -8.6 6.72 -8.77 5.92 -8.77C5.36 -8.77 4.84 -8.63 4.37 -8.36C3.89 -8.08 3.5 -7.7 3.19 -7.22L3.19 -8.2C3.19 -8.35 3.15 -8.46 3.07 -8.55C2.98 -8.63 2.86 -8.68 2.72 -8.68C2.58 -8.68 2.47 -8.63 2.38 -8.55C2.29 -8.46 2.24 -8.35 2.24 -8.2L2.24 -0.48C2.24 -0.34 2.29 -0.22 2.38 -0.13C2.47 -0.04 2.58 0 2.72 0C2.86 0 2.98 -0.04 3.07 -0.13C3.15 -0.22 3.19 -0.34 3.19 -0.48L3.19 -5.3C3.19 -5.78 3.31 -6.22 3.54 -6.61C3.77 -7 4.1 -7.31 4.51 -7.53C4.92 -7.76 5.39 -7.87 5.92 -7.87C6.03 -7.87 6.16 -7.86 6.31 -7.83C6.46 -7.81 6.59 -7.8 6.68 -7.8C6.8 -7.8 6.89 -7.83 6.96 -7.87C7.03 -7.92 7.08 -8 7.11 -8.12C7.12 -8.15 7.13 -8.19 7.13 -8.25Z M15.29 -8.31C14.69 -8.63 14 -8.79 13.22 -8.79C12.61 -8.79 12.05 -8.66 11.53 -8.41C11.01 -8.17 10.57 -7.82 10.21 -7.37L10.21 -8.2C10.21 -8.35 10.17 -8.46 10.08 -8.55C10 -8.63 9.88 -8.68 9.74 -8.68C9.6 -8.68 9.48 -8.63 9.39 -8.55C9.3 -8.46 9.26 -8.35 9.26 -8.2L9.26 -0.48C9.26 -0.34 9.3 -0.22 9.39 -0.13C9.48 -0.04 9.6 0 9.74 0C9.88 0 10 -0.04 10.08 -0.13C10.17 -0.22 10.21 -0.34 10.21 -0.48L10.21 -5.33C10.21 -5.79 10.34 -6.22 10.61 -6.61C10.87 -6.99 11.23 -7.29 11.69 -7.51C12.15 -7.73 12.66 -7.83 13.22 -7.83C14.13 -7.83 14.87 -7.57 15.44 -7.04C16 -6.51 16.29 -5.75 16.29 -4.74L16.29 -0.48C16.29 -0.34 16.33 -0.22 16.42 -0.13C16.51 -0.04 16.62 0 16.76 0C16.9 0 17.01 -0.04 17.1 -0.13C17.19 -0.22 17.24 -0.34 17.24 -0.48L17.24 -4.74C17.24 -5.59 17.07 -6.31 16.72 -6.92C16.38 -7.53 15.9 -7.99 15.29 -8.31Z M26.62 -8.25C26.62 -8.44 26.53 -8.57 26.35 -8.66C26.29 -8.69 26.22 -8.71 26.14 -8.71C25.95 -8.71 25.82 -8.62 25.73 -8.44L22.53 -1.38L19.28 -8.42C19.19 -8.6 19.06 -8.69 18.88 -8.69C18.82 -8.69 18.75 -8.68 18.69 -8.64C18.51 -8.56 18.42 -8.42 18.42 -8.23C18.42 -8.16 18.43 -8.1 18.45 -8.06L22.07 -0.32C22.11 -0.21 22.17 -0.13 22.25 -0.07C22.33 -0.01 22.42 0.02 22.51 0.02C22.74 0.02 22.91 -0.1 23.02 -0.32L26.59 -8.07C26.61 -8.11 26.62 -8.17 26.62 -8.25Z M33.79 -8.21C33.18 -8.57 32.49 -8.75 31.72 -8.75C30.93 -8.75 30.22 -8.57 29.6 -8.19C28.98 -7.82 28.5 -7.29 28.16 -6.62C27.82 -5.95 27.64 -5.19 27.64 -4.33C27.64 -3.48 27.83 -2.73 28.2 -2.05C28.57 -1.38 29.08 -0.86 29.73 -0.48C30.38 -0.11 31.12 0.08 31.96 0.08C32.45 0.08 32.98 -0.02 33.52 -0.22C34.06 -0.42 34.51 -0.68 34.84 -0.98C34.94 -1.08 34.99 -1.18 34.99 -1.28C34.99 -1.41 34.93 -1.52 34.81 -1.62C34.74 -1.68 34.64 -1.71 34.53 -1.71C34.41 -1.71 34.3 -1.67 34.19 -1.59C33.95 -1.35 33.62 -1.17 33.2 -1.02C32.78 -0.88 32.37 -0.81 31.96 -0.81C31.34 -0.81 30.79 -0.95 30.29 -1.22C29.8 -1.5 29.4 -1.88 29.1 -2.37C28.81 -2.86 28.64 -3.42 28.61 -4.04L35.26 -4.04C35.39 -4.04 35.5 -4.08 35.59 -4.16C35.67 -4.24 35.72 -4.35 35.72 -4.49C35.72 -5.31 35.55 -6.05 35.21 -6.69C34.87 -7.34 34.4 -7.84 33.79 -8.21ZM29.63 -7.04C30.2 -7.59 30.89 -7.87 31.72 -7.87C32.58 -7.87 33.28 -7.59 33.84 -7.04C34.41 -6.49 34.72 -5.77 34.8 -4.87L28.63 -4.87C28.73 -5.77 29.07 -6.49 29.63 -7.04Z M42.74 -8.25C42.74 -8.6 42.33 -8.77 41.53 -8.77C40.97 -8.77 40.45 -8.63 39.98 -8.36C39.5 -8.08 39.11 -7.7 38.8 -7.22L38.8 -8.2C38.8 -8.35 38.76 -8.46 38.68 -8.55C38.59 -8.63 38.47 -8.68 38.33 -8.68C38.19 -8.68 38.08 -8.63 37.99 -8.55C37.9 -8.46 37.85 -8.35 37.85 -8.2L37.85 -0.48C37.85 -0.34 37.9 -0.22 37.99 -0.13C38.08 -0.04 38.19 0 38.33 0C38.47 0 38.59 -0.04 38.68 -0.13C38.76 -0.22 38.8 -0.34 38.8 -0.48L38.8 -5.3C38.8 -5.78 38.92 -6.22 39.15 -6.61C39.38 -7 39.71 -7.31 40.12 -7.53C40.53 -7.76 41 -7.87 41.53 -7.87C41.64 -7.87 41.77 -7.86 41.92 -7.83C42.07 -7.81 42.2 -7.8 42.29 -7.8C42.41 -7.8 42.5 -7.83 42.57 -7.87C42.64 -7.92 42.69 -8 42.72 -8.12C42.73 -8.15 42.74 -8.19 42.74 -8.25Z M49.91 -8.21C49.3 -8.57 48.61 -8.75 47.84 -8.75C47.04 -8.75 46.34 -8.57 45.72 -8.19C45.1 -7.82 44.62 -7.29 44.28 -6.62C43.93 -5.95 43.76 -5.19 43.76 -4.33C43.76 -3.48 43.94 -2.73 44.31 -2.05C44.68 -1.38 45.19 -0.86 45.85 -0.48C46.5 -0.11 47.24 0.08 48.07 0.08C48.57 0.08 49.09 -0.02 49.64 -0.22C50.18 -0.42 50.62 -0.68 50.96 -0.98C51.06 -1.08 51.1 -1.18 51.1 -1.28C51.1 -1.41 51.04 -1.52 50.93 -1.62C50.85 -1.68 50.76 -1.71 50.64 -1.71C50.53 -1.71 50.42 -1.67 50.31 -1.59C50.07 -1.35 49.74 -1.17 49.32 -1.02C48.9 -0.88 48.49 -0.81 48.07 -0.81C47.46 -0.81 46.91 -0.95 46.41 -1.22C45.91 -1.5 45.51 -1.88 45.22 -2.37C44.92 -2.86 44.76 -3.42 44.73 -4.04L51.37 -4.04C51.51 -4.04 51.62 -4.08 51.71 -4.16C51.79 -4.24 51.83 -4.35 51.83 -4.49C51.83 -5.31 51.66 -6.05 51.32 -6.69C50.99 -7.34 50.51 -7.84 49.91 -8.21ZM45.75 -7.04C46.32 -7.59 47.01 -7.87 47.84 -7.87C48.69 -7.87 49.4 -7.59 49.96 -7.04C50.52 -6.49 50.84 -5.77 50.91 -4.87L44.74 -4.87C44.85 -5.77 45.18 -6.49 45.75 -7.04Z M54.42 -8.55C54.33 -8.46 54.28 -8.35 54.28 -8.2L54.28 -0.48C54.28 -0.34 54.33 -0.22 54.42 -0.13C54.51 -0.04 54.62 0 54.76 0C54.91 0 55.02 -0.04 55.11 -0.13C55.19 -0.22 55.24 -0.34 55.24 -0.48L55.24 -8.2C55.24 -8.35 55.19 -8.46 55.11 -8.55C55.02 -8.63 54.91 -8.68 54.76 -8.68C54.62 -8.68 54.51 -8.63 54.42 -8.55ZM55.27 -11.78C55.13 -11.91 54.96 -11.97 54.76 -11.97C54.56 -11.97 54.38 -11.91 54.24 -11.78C54.09 -11.66 54.01 -11.48 54.01 -11.24C54.01 -11.03 54.08 -10.86 54.22 -10.71C54.36 -10.57 54.53 -10.5 54.74 -10.5C54.96 -10.5 55.13 -10.57 55.27 -10.71C55.42 -10.86 55.49 -11.03 55.49 -11.24C55.49 -11.48 55.42 -11.66 55.27 -11.78Z M64.51 -8.31C63.91 -8.63 63.22 -8.79 62.44 -8.79C61.83 -8.79 61.27 -8.66 60.75 -8.41C60.23 -8.17 59.79 -7.82 59.43 -7.37L59.43 -8.2C59.43 -8.35 59.39 -8.46 59.3 -8.55C59.22 -8.63 59.1 -8.68 58.96 -8.68C58.82 -8.68 58.7 -8.63 58.61 -8.55C58.52 -8.46 58.48 -8.35 58.48 -8.2L58.48 -0.48C58.48 -0.34 58.52 -0.22 58.61 -0.13C58.7 -0.04 58.82 0 58.96 0C59.1 0 59.22 -0.04 59.3 -0.13C59.39 -0.22 59.43 -0.34 59.43 -0.48L59.43 -5.33C59.43 -5.79 59.56 -6.22 59.83 -6.61C60.09 -6.99 60.45 -7.29 60.91 -7.51C61.37 -7.73 61.88 -7.83 62.44 -7.83C63.35 -7.83 64.09 -7.57 64.66 -7.04C65.22 -6.51 65.51 -5.75 65.51 -4.74L65.51 -0.48C65.51 -0.34 65.55 -0.22 65.64 -0.13C65.73 -0.04 65.84 0 65.98 0C66.12 0 66.23 -0.04 66.32 -0.13C66.41 -0.22 66.46 -0.34 66.46 -0.48L66.46 -4.74C66.46 -5.59 66.29 -6.31 65.94 -6.92C65.6 -7.53 65.12 -7.99 64.51 -8.31Z M86.79 -12.25C86.71 -12.34 86.6 -12.39 86.46 -12.39C86.34 -12.39 86.24 -12.36 86.16 -12.3C86.07 -12.24 86.02 -12.16 86 -12.07L83.13 -2.09L80.4 -11.59C80.37 -11.69 80.31 -11.77 80.23 -11.82C80.14 -11.88 80.05 -11.91 79.94 -11.91C79.85 -11.91 79.75 -11.88 79.66 -11.82C79.57 -11.77 79.52 -11.69 79.5 -11.61L76.77 -2.09L73.9 -12.02C73.83 -12.26 73.68 -12.39 73.44 -12.39C73.29 -12.39 73.17 -12.34 73.09 -12.24C73 -12.15 72.96 -12.03 72.96 -11.88C72.96 -11.85 72.97 -11.78 72.99 -11.67L76.28 -0.41C76.31 -0.3 76.37 -0.2 76.46 -0.12C76.55 -0.04 76.65 0 76.77 0C77 0 77.17 -0.14 77.28 -0.41L79.94 -9.94L82.64 -0.41C82.67 -0.29 82.73 -0.19 82.81 -0.11C82.9 -0.04 83 0 83.13 0C83.23 0 83.33 -0.04 83.42 -0.11C83.51 -0.19 83.58 -0.29 83.62 -0.41L86.89 -11.67C86.91 -11.78 86.92 -11.85 86.92 -11.89C86.92 -12.04 86.88 -12.16 86.79 -12.25Z M89.35 -8.55C89.26 -8.46 89.21 -8.35 89.21 -8.2L89.21 -0.48C89.21 -0.34 89.26 -0.22 89.35 -0.13C89.44 -0.04 89.55 0 89.69 0C89.84 0 89.95 -0.04 90.04 -0.13C90.12 -0.22 90.16 -0.34 90.16 -0.48L90.16 -8.2C90.16 -8.35 90.12 -8.46 90.04 -8.55C89.95 -8.63 89.84 -8.68 89.69 -8.68C89.55 -8.68 89.44 -8.63 89.35 -8.55ZM90.2 -11.78C90.06 -11.91 89.89 -11.97 89.69 -11.97C89.49 -11.97 89.31 -11.91 89.16 -11.78C89.02 -11.66 88.94 -11.48 88.94 -11.24C88.94 -11.03 89.01 -10.86 89.15 -10.71C89.29 -10.57 89.46 -10.5 89.67 -10.5C89.88 -10.5 90.06 -10.57 90.2 -10.71C90.35 -10.86 90.42 -11.03 90.42 -11.24C90.42 -11.48 90.35 -11.66 90.2 -11.78Z M99.08 -8.21C98.47 -8.57 97.78 -8.75 97.01 -8.75C96.21 -8.75 95.51 -8.57 94.89 -8.19C94.27 -7.82 93.79 -7.29 93.45 -6.62C93.1 -5.95 92.93 -5.19 92.93 -4.33C92.93 -3.48 93.12 -2.73 93.49 -2.05C93.86 -1.38 94.37 -0.86 95.02 -0.48C95.67 -0.11 96.41 0.08 97.25 0.08C97.74 0.08 98.26 -0.02 98.81 -0.22C99.35 -0.42 99.79 -0.68 100.13 -0.98C100.23 -1.08 100.27 -1.18 100.27 -1.28C100.27 -1.41 100.22 -1.52 100.1 -1.62C100.03 -1.68 99.93 -1.71 99.82 -1.71C99.7 -1.71 99.59 -1.67 99.48 -1.59C99.24 -1.35 98.91 -1.17 98.49 -1.02C98.07 -0.88 97.66 -0.81 97.25 -0.81C96.63 -0.81 96.08 -0.95 95.58 -1.22C95.08 -1.5 94.69 -1.88 94.39 -2.37C94.1 -2.86 93.93 -3.42 93.9 -4.04L100.54 -4.04C100.68 -4.04 100.79 -4.08 100.88 -4.16C100.96 -4.24 101 -4.35 101 -4.49C101 -5.31 100.84 -6.05 100.5 -6.69C100.16 -7.34 99.69 -7.84 99.08 -8.21ZM94.92 -7.04C95.49 -7.59 96.18 -7.87 97.01 -7.87C97.86 -7.87 98.57 -7.59 99.13 -7.04C99.69 -6.49 100.01 -5.77 100.08 -4.87L93.92 -4.87C94.02 -5.77 94.36 -6.49 94.92 -7.04Z M109.17 -8.31C108.57 -8.63 107.88 -8.79 107.1 -8.79C106.49 -8.79 105.92 -8.66 105.41 -8.41C104.89 -8.17 104.45 -7.82 104.09 -7.37L104.09 -8.2C104.09 -8.35 104.05 -8.46 103.96 -8.55C103.88 -8.63 103.76 -8.68 103.61 -8.68C103.48 -8.68 103.36 -8.63 103.27 -8.55C103.18 -8.46 103.14 -8.35 103.14 -8.2L103.14 -0.48C103.14 -0.34 103.18 -0.22 103.27 -0.13C103.36 -0.04 103.48 0 103.61 0C103.76 0 103.88 -0.04 103.96 -0.13C104.05 -0.22 104.09 -0.34 104.09 -0.48L104.09 -5.33C104.09 -5.79 104.22 -6.22 104.49 -6.61C104.75 -6.99 105.11 -7.29 105.57 -7.51C106.03 -7.73 106.54 -7.83 107.1 -7.83C108.01 -7.83 108.75 -7.57 109.32 -7.04C109.88 -6.51 110.16 -5.75 110.16 -4.74L110.16 -0.48C110.16 -0.34 110.21 -0.22 110.3 -0.13C110.39 -0.04 110.5 0 110.64 0C110.78 0 110.89 -0.04 110.98 -0.13C111.07 -0.22 111.12 -0.34 111.12 -0.48L111.12 -4.74C111.12 -5.59 110.94 -6.31 110.6 -6.92C110.26 -7.53 109.78 -7.99 109.17 -8.31Z"></path></g><g id="SvgjsG62421" class="PFvjLwM8OL" transform="translate(70.57856241402031, 181.57602624259036) scale(0.3935792180247139)" light-content="false" non-strokable="false" fill="#4ab5e2"><path d="M85.1 22.6c-.8-1.8-2.8-2.7-4.6-1.9-1.7.7-6.7 2.6-9.3 3-2 .3-6.1.4-11-1.7-2.2-.9-5-2.3-5.3-2.5-5.7-2.6-14.3-.6-20.6 1.6-.8.3-2.6.9-8.8 8.7-1.2 1.5-1 3.8.6 5 .7.5 1.4.8 2.2.8 1 0 2.1-.5 2.8-1.3 2.3-2.9 4.9-5.8 5.9-6.5 1.9-.7 3.8-1.2 5.5-1.6-3.1 4.6-6.3 11.9-6.3 14.6-.1 2.6-2.4 8.9-3.8 11.7-2.6-1.2-7.3-3.8-11.1-6.1-2-1.2-4.5-.6-5.7 1.4-1.2 2-.6 4.5 1.4 5.7 11.3 6.9 15 8 16.7 8 .4 0 .7-.1 1-.1 3.3-.7 5.9-5.8 7.6-10.7l35.2.7h.1c2.3 0 4.1-1.8 4.1-4.1s-1.8-4.2-4.1-4.2l-25.1-.5c2-4.3 5-10 7.9-12.8 3.3 1 6.3 1.4 8.6 1.4 1.3 0 2.4-.1 3.3-.2 3.9-.5 10.4-3.2 11.1-3.5 1.6-1 2.4-3.1 1.7-4.9z"></path><ellipse transform="rotate(-65.28 61.468 10.803)" cx="61.5" cy="10.8" rx="8.3" ry="8.3"></ellipse><path d="M76.8 56l-32.3 6.1c-1.5.3-2.6 1.6-2.6 3.1v28.3h-3.3c-1.1 0-2 .9-2 2s.9 2 2 2h4.1c1.8 0 3.2-1.4 3.2-3.2V80.7l30.8-5.8v10.6h-3.3c-1.1 0-2 .9-2 2s.9 2 2 2h4.1c1.8 0 3.2-1.4 3.2-3.2v-27c0-1-.4-1.8-1.2-2.5-.8-.7-1.8-1-2.7-.8z"></path></g><g id="SvgjsG62422" class="xjkA-NyaQM" transform="translate(172.28044949377326, 172.01845054778698) scale(0.9507524445903814)" light-content="false" non-strokable="false" fill="#7ed321"><g data-name="Group"><path data-name="Path" d="M23 23a2.5 2.5 0 0 0-.23-.23l-5.28-6.13 2-1.87 3.32 3.72a1.68 1.68 0 0 0 1.26.56 1.65 1.65 0 0 0 1.11-.43 1.69 1.69 0 0 0 .14-2.37l-4.47-5a1.7 1.7 0 0 0-1.19-.56 1.68 1.68 0 0 0-1.22.46l-4 3.77-4 3.42a1.46 1.46 0 0 0-.41.29l-3.78 3.56-3.32-3.72a1.68 1.68 0 0 0-2.5 2.24l4.47 5a1.66 1.66 0 0 0 1.18.55h.07a1.69 1.69 0 0 0 1.15-.46l4.1-3.8 5.38 6.24-1.6 3.95a1.92 1.92 0 0 0 .95 2.46l6.73 3.25a2 2 0 0 0 .84.2 1.94 1.94 0 0 0 .84-3.68l-5.1-2.46 1.74-4.31a1.81 1.81 0 0 0 .14-.59l8.22 9.55a1.94 1.94 0 0 0 1.47.67 2 2 0 0 0 1.26-.47 1.93 1.93 0 0 0 .2-2.72z"></path><path data-name="Path" d="M9.1 17.37a3.72 3.72 0 1 0-3.27-4.12 3.73 3.73 0 0 0 3.27 4.12zM27.74 16H44.3a1 1 0 0 0 .84-1v-.23a.91.91 0 0 0-.84-1H27.74a.94.94 0 0 0-.86 1V15a1 1 0 0 0 .86 1z"></path><rect data-name="Path" x="26.88" y="18.97" width="21.12" height="2.18" rx=".98" ry=".98"></rect><path data-name="Path" d="M44.3 24.1H27.74a.93.93 0 0 0-.86 1v.23a.94.94 0 0 0 .86 1H44.3a.91.91 0 0 0 .84-1v-.23a.91.91 0 0 0-.84-1z"></path></g></g><g id="SvgjsG62423" class="DIgBVFNDLu" transform="translate(121.08087907444879, 196.57573877028145) scale(0.45011016425493366)" light-content="false" non-strokable="false" fill="#f5a623"><path d="M95.9 31.4c-4.7-3-13-8.1-16.6-8.4-3.3-.2-12.7.7-14.3.9-.6 0-1.2.1-1.7.2-5.9-1.9-11.2-1.1-14.9.2v-.2c-.5-7.1-10.3-12.9-12.2-14-1.4-.8-3.2-.3-4 1.1-.8 1.4-.3 3.2 1.1 4 3.6 2.1 9.1 6.4 9.3 9.2 0 .3 0 .9-1.1 1.9-1.1-2.1-1.8-3.1-2.4-3.7-3.8-3.8-13.8-1.7-17.9-.7-1.6.4-2.5 2-2.1 3.6.4 1.6 2 2.5 3.6 2.1 5.2-1.3 11.2-1.8 12.2-.9.6.7 2.6 4.6 3.7 6.6.2.3.3.6.5.9 1.1 3.7 2.9 5 5.4 4.8 2.6-.2 9-7.1 20.5-3.2l1.5.5c2.2 1 4.9 2.2 6.2 3.7.6 1.4 1.7 7.1 2.3 11.7.2 1.7 1.7 2.9 3.4 2.9h.5c1.9-.3 3.2-2 2.9-3.9-1.7-12.5-3.2-14.3-3.7-14.9-2.1-2.6-5.5-4.2-8.3-5.5 3.6-.3 7.5-.6 9-.5 1.7.3 8.3 4 13.4 7.3 1.6 1 3.7.6 4.7-1 1.1-1.6.6-3.7-1-4.7z"></path><ellipse transform="rotate(-11.321 30.796 37.763)" cx="30.8" cy="37.8" rx="6.9" ry="6.9"></ellipse><path d="M63.2 41.7h-3c-.5 0-.9.4-.9.9v3.9l-16.5 5v-2.4c0-.5-.4-.9-.9-.9h-3c-.5 0-.9.4-.9.9v21.5H5.6c-1.7 0-3.1 1.4-3.1 3.1v13.6c0 1.7 1.4 3.1 3.1 3.1h44.6c1.7 0 3.1-1.4 3.1-3.1V73.7c0-1.7-1.4-3.1-3.1-3.1h-7.4V54.1l16.5-5v40.3c0 .5.4.9.9.9h3c.5 0 .9-.4.9-.9V42.6c0-.5-.4-.9-.9-.9z"></path></g><g id="SvgjsG62424" class="l39lnsFc9T" transform="translate(95.2707052590057, 98.2425786958174) scale(2.7092928745597407)" light-content="false" non-strokable="false" fill="#000000"><path d="M1.777.53a.724.724 0 0 0-.556.233 12.853 12.853 0 0 0-.407.041l.034.288a12.564 12.564 0 0 1 .204-.023.724.724 0 0 0 .064.53l1.896 3.498a3.477 3.477 0 0 1 .18 2.931l-.498 1.264-1.436 1.684a.725.725 0 0 0 1.103.94l1.53-1.794a.58.58 0 0 0 .098-.164l.7-1.775 1.171-.33a.087.087 0 0 1 .11.076l.14 1.537a.724.724 0 0 0 1.442-.13l-.227-2.51a.724.724 0 0 0-.918-.632l-.953.269a5.505 5.505 0 0 0-.537-2.095 1.25 1.25 0 0 0 .885-1.084l.761-1.465a.724.724 0 0 0 .017-.035 6.954 6.954 0 0 1 3.583 3.582 17.106 17.106 0 0 1 1.434 6.54l.29-.006a17.395 17.395 0 0 0-1.458-6.65 7.244 7.244 0 0 0-3.785-3.754.724.724 0 0 0-1.319-.425A12.853 12.853 0 0 0 2.238.716a.724.724 0 0 0-.46-.186zm-.036.292a.435.435 0 0 1 .394.224L3.308 3.21A1.25 1.25 0 0 0 4.62 4.42a5.216 5.216 0 0 1 .55 2.423l1.315-.37a.435.435 0 0 1 .551.38l.227 2.509a.435.435 0 0 1-.866.078l-.139-1.537a.377.377 0 0 0-.477-.329l-1.31.369-.752 1.91a.29.29 0 0 1-.05.08l-1.528 1.795a.435.435 0 0 1-.662-.564l1.467-1.72.515-1.31a3.767 3.767 0 0 0-.193-3.175L1.37 1.461a.435.435 0 0 1 .37-.64zm.701.184a12.564 12.564 0 0 1 2.74.328l-.324.624a1.25 1.25 0 0 0-1.474.784zm3.483.047a.435.435 0 0 1 .012 0 .435.435 0 0 1 .369.632L5.74 2.771a1.25 1.25 0 0 0-.61-.71l.403-.776a.435.435 0 0 1 .39-.232zM4.529 2.212a.96.96 0 0 1 .988.959.96.96 0 1 1-1.92 0 .96.96 0 0 1 .932-.96z"></path></g></g></g></svg>